HIERARCHY
ROOT root
{
	OFFSET 0.000000 0.000000 0.000000
	CHANNELS 6 Xposition Yposition Zposition Zrotation Yrotation Xrotation
	JOINT lhip
	{
		OFFSET 0.058581 -0.082280 -0.017664
		CHANNELS 3 Zrotation Yrotation Xrotation
		JOINT lknee
		{
			OFFSET 0.043451 -0.386469 0.008037
			CHANNELS 3 Zrotation Yrotation Xrotation
			JOINT lankle
			{
				OFFSET -0.014790 -0.426874 -0.037428
				CHANNELS 3 Zrotation Yrotation Xrotation
				JOINT ltoe
				{
					OFFSET 0.041054 -0.060286 0.122042
					CHANNELS 3 Zrotation Yrotation Xrotation
					End Site
					{
						OFFSET 0.000000 0.000000 0.000000
					}
				}
			}
		}
	}
	JOINT rhip
	{
		OFFSET -0.060310 -0.090513 -0.013543
		CHANNELS 3 Zrotation Yrotation Xrotation
		JOINT rknee
		{
			OFFSET -0.043257 -0.383688 -0.004843
			CHANNELS 3 Zrotation Yrotation Xrotation
			JOINT rankle
			{
				OFFSET 0.019056 -0.420046 -0.034562
				CHANNELS 3 Zrotation Yrotation Xrotation
				JOINT rtoe
				{
					OFFSET -0.034840 -0.062106 0.130323
					CHANNELS 3 Zrotation Yrotation Xrotation
					End Site
					{
						OFFSET 0.000000 0.000000 0.000000
					}
				}
			}
		}
	}
	JOINT lowerback
	{
		OFFSET 0.004439 0.124404 -0.038385
		CHANNELS 3 Zrotation Yrotation Xrotation
		JOINT upperback
		{
			OFFSET 0.004488 0.137956 0.026820
			CHANNELS 3 Zrotation Yrotation Xrotation
			JOINT chest
			{
				OFFSET -0.002265 0.056032 0.002855
				CHANNELS 3 Zrotation Yrotation Xrotation
				JOINT lowerneck
				{
					OFFSET -0.013390 0.211636 -0.033468
					CHANNELS 3 Zrotation Yrotation Xrotation
					JOINT upperneck
					{
						OFFSET 0.010113 0.088937 0.050410
						CHANNELS 3 Zrotation Yrotation Xrotation
						End Site
						{
							OFFSET 0.000000 0.000000 0.000000
						}
					}
				}
				JOINT lclavicle
				{
					OFFSET 0.071702 0.114000 -0.018898
					CHANNELS 3 Zrotation Yrotation Xrotation
					JOINT lshoulder
					{
						OFFSET 0.122921 0.045205 -0.019046
						CHANNELS 3 Zrotation Yrotation Xrotation
						JOINT lelbow
						{
							OFFSET 0.255332 -0.015649 -0.022946
							CHANNELS 3 Zrotation Yrotation Xrotation
							JOINT lwrist
							{
								OFFSET 0.265709 0.012698 -0.007375
								CHANNELS 3 Zrotation Yrotation Xrotation
								End Site
								{
									OFFSET 0.000000 0.000000 0.000000
								}
							}
						}
					}
				}
				JOINT rclavicle
				{
					OFFSET -0.082954 0.112472 -0.023707
					CHANNELS 3 Zrotation Yrotation Xrotation
					JOINT rshoulder
					{
						OFFSET -0.113228 0.046853 -0.008472
						CHANNELS 3 Zrotation Yrotation Xrotation
						JOINT relbow
						{
							OFFSET -0.260127 -0.014369 -0.031269
							CHANNELS 3 Zrotation Yrotation Xrotation
							JOINT rwrist
							{
								OFFSET -0.269108 0.006794 -0.006027
								CHANNELS 3 Zrotation Yrotation Xrotation
								End Site
								{
									OFFSET 0.000000 0.000000 0.000000
								}
							}
						}
					}
				}
			}
		}
	}
}
MOTION
Frames: 14
Frame Time: 0.033333
0.364572 0.168726 0.987338 85.273853 0.993129 91.100328 9.053661 4.355094 7.062565 -5.493740 2.711390 -7.999060 0.664053 8.378850 -2.150095 0.000000 -0.000000 0.000000 -6.475329 -3.598126 1.234031 2.377985 0.791165 -0.759575 4.702516 -3.017567 -4.889954 0.000000 -0.000000 0.000000 -4.230422 2.391592 -8.274112 2.830168 -1.981096 12.266940 -0.353394 1.865882 -2.345728 3.327728 4.020639 6.026105 4.501634 -1.561822 1.968991 -25.328011 1.167150 5.289040 -51.412723 -9.386199 16.027988 -9.200024 -56.844857 27.859579 0.337651 -15.829580 -3.656679 27.807668 -0.077620 9.633307 54.008092 5.454964 13.848070 -9.288077 52.254122 1.897605 8.866692 9.121429 -11.998583 
0.364351 0.168856 0.987272 85.340610 0.940105 90.933505 8.991299 4.160262 7.294347 -5.490362 2.898493 -8.139126 0.604607 8.283377 -2.090923 0.000000 -0.000000 0.000000 -6.555488 -3.458970 1.516619 2.371872 0.658439 -0.904712 4.771997 -3.107842 -4.808095 0.000000 -0.000000 0.000000 -4.265574 2.153502 -7.944802 2.688689 -1.825116 11.812746 -0.234791 1.868008 -1.956885 3.319418 3.850160 5.843763 4.283396 -1.546003 4.016533 -24.617149 1.159636 5.154345 -51.483920 -9.571800 16.401722 -10.735766 -62.562826 29.222510 1.012450 -16.180190 -4.568261 27.009752 0.192306 9.645915 53.797040 5.478251 14.597418 -11.053694 57.676736 -0.933333 8.942767 9.058806 -14.128365 
0.364128 0.169013 0.987445 85.271374 0.887976 90.994271 8.904661 3.883202 7.312576 -5.541210 3.345641 -8.258693 0.621105 8.172056 -2.061744 0.000000 -0.000000 0.000000 -6.527466 -3.313490 1.559128 2.181702 0.599664 -1.057271 4.831512 -3.107464 -4.645011 0.000000 -0.000000 0.000000 -4.377705 2.057058 -8.169158 2.637830 -1.797318 12.117941 -0.202415 1.827410 -2.069571 3.278796 3.660624 6.181201 4.168491 -1.254924 5.188466 -24.200564 1.186190 5.081834 -51.366145 -9.643312 16.819260 -12.320792 -68.512138 29.852564 1.110088 -16.408596 -5.061594 26.469235 0.493665 9.538377 52.870735 5.718943 15.387086 -13.261937 63.283461 -3.462474 9.841843 9.524018 -13.328443 
0.363707 0.169390 0.987608 85.061423 0.833104 90.964792 8.848700 3.696761 7.383064 -5.627965 3.800536 -8.319841 0.676573 8.051037 -2.035013 0.000000 -0.000000 0.000000 -6.699223 -3.273227 1.448269 2.314055 0.402960 -0.870196 4.936123 -2.884141 -4.666882 0.000000 -0.000000 0.000000 -4.410588 1.862438 -8.208064 2.531014 -1.674418 12.102086 -0.240201 1.843819 -1.812988 3.443586 3.511505 6.412742 3.967909 -1.141373 6.707341 -23.421397 1.518623 4.556555 -51.811534 -10.831974 17.138463 -16.644072 -75.137665 35.230969 2.246849 -17.077446 -5.862241 25.647620 0.748405 8.901574 50.947890 6.876571 16.335585 -14.604363 71.021709 -3.464849 8.229261 11.901975 -12.332484 
0.363667 0.169333 0.987776 84.830583 0.787682 90.896976 8.807604 3.712107 7.547580 -5.674707 4.002905 -8.406453 0.635080 8.003645 -1.995128 0.000000 -0.000000 0.000000 -6.742719 -3.144927 1.477228 2.277469 0.366015 -0.843300 4.942499 -2.745655 -4.626421 0.000000 -0.000000 0.000000 -4.515535 1.814782 -8.207619 2.497142 -1.511906 12.208935 -0.196759 1.859751 -1.802228 3.513573 3.357032 6.530423 3.886613 -1.065947 6.962540 -23.360976 1.516232 4.353343 -51.755658 -10.879185 17.360775 -18.016206 -77.481509 36.375678 2.266731 -17.208784 -5.741834 25.359255 0.951655 8.550475 50.285420 7.455614 16.585648 -16.205418 73.458136 -4.899207 8.854833 12.149766 -11.939991 
0.363731 0.169773 0.987784 85.058281 0.868084 91.001552 8.892021 3.437332 7.308622 -5.681931 4.242394 -8.266141 0.627667 7.823376 -2.023955 0.000000 -0.000000 0.000000 -6.656912 -3.388347 1.515548 2.252185 0.273416 -1.021209 4.991925 -2.671654 -4.474806 0.000000 -0.000000 0.000000 -4.527617 1.920224 -8.642678 2.462530 -1.918277 12.525594 -0.201137 1.779884 -1.684441 3.596036 3.024790 6.806008 3.881320 -1.124880 7.461927 -23.163644 1.306520 4.032819 -52.018540 -11.415231 17.836495 -20.933299 -81.321661 39.355748 2.967414 -17.239926 -6.241860 24.536969 1.484022 8.026492 49.033167 8.922299 16.926433 -22.196797 77.863871 -10.783850 9.343667 11.787270 -13.979224 
0.363849 0.169861 0.987715 84.837688 0.850596 91.040130 8.880127 3.395951 7.362164 -5.741082 4.521851 -8.365486 0.592247 7.775075 -1.959562 0.000000 -0.000000 0.000000 -6.704634 -3.417924 1.449208 2.270504 0.280217 -1.032437 4.976049 -2.512908 -4.430980 0.000000 -0.000000 0.000000 -4.561533 1.971511 -8.901523 2.344445 -1.870338 12.620900 -0.223992 1.729743 -1.555843 3.820489 2.751061 7.087115 3.838041 -1.282520 7.961529 -22.889475 1.317067 3.697486 -52.356071 -12.071460 18.060509 -27.965331 -84.230449 46.658336 4.010805 -17.345175 -7.089048 23.836111 2.156033 7.798918 47.627302 10.371268 17.402777 -29.570342 81.345979 -17.458638 6.642647 13.106879 -14.445354 
0.363194 0.170242 0.987271 84.856725 0.935363 91.206722 8.959940 3.216723 7.019698 -5.761233 4.826748 -8.202035 0.587420 7.643166 -1.981840 0.000000 -0.000000 0.000000 -6.641659 -3.460093 1.201388 2.294517 0.135168 -1.004610 5.030602 -2.393171 -4.358683 0.000000 -0.000000 0.000000 -4.507956 1.926070 -9.009747 2.258197 -1.934611 12.416492 -0.254254 1.809130 -1.220879 4.107030 2.422697 6.923475 3.693229 -1.471374 8.301122 -22.672241 1.346780 3.203332 -52.825190 -12.949698 18.513965 -40.178484 -86.309354 59.042740 4.486778 -17.437802 -7.846297 23.242814 2.224330 6.848651 45.967428 12.506288 17.250640 -39.479815 84.227971 -26.934154 6.457171 13.650017 -15.114499 
0.362757 0.170256 0.987283 84.658654 0.962225 91.213898 8.980590 3.184803 6.977009 -5.785521 5.156305 -8.161035 0.532228 7.490514 -1.903584 0.000000 -0.000000 0.000000 -6.602071 -3.430529 1.091931 2.238506 0.128884 -0.979758 5.092157 -2.217255 -4.221007 0.000000 -0.000000 0.000000 -4.550262 1.905598 -9.018889 2.201862 -1.737128 12.341777 -0.252338 1.870490 -1.025697 4.171096 1.912582 6.893255 3.711688 -1.522903 8.485002 -22.626938 1.232422 2.608509 -53.050305 -13.501751 18.923809 -63.616866 -87.690234 82.468774 4.443684 -17.624715 -8.302879 22.775587 2.625143 5.983891 44.176142 14.408608 16.812778 -63.143097 85.819867 -50.269207 8.551930 14.230961 -14.149733 
0.362575 0.170277 0.987492 84.591283 0.953557 91.130143 8.948170 3.160038 7.038850 -5.762372 5.310180 -8.144177 0.459434 7.389669 -1.916812 0.000000 -0.000000 0.000000 -6.610518 -3.432122 1.122515 2.206670 0.088248 -0.959578 5.180356 -2.127185 -4.172993 0.000000 -0.000000 0.000000 -4.576568 1.891477 -8.977394 2.095124 -1.622108 12.430832 -0.276221 1.862516 -0.986371 4.312391 1.596119 6.880254 3.616385 -1.506635 8.689825 -22.553891 1.023687 2.214338 -53.225955 -13.897015 19.192807 -101.319920 -88.216146 120.204633 4.583778 -17.931864 -8.703542 22.208897 3.174537 5.372646 42.561177 16.165918 16.401935 -92.620146 86.236486 -79.792050 8.872901 14.703004 -14.350982 
0.362215 0.170491 0.987519 84.678823 0.948499 91.131218 8.904099 3.094795 6.917167 -5.688456 5.413260 -8.055816 0.412270 7.290347 -1.940466 0.000000 -0.000000 0.000000 -6.615160 -3.477295 1.075793 2.188868 0.030787 -0.947293 5.221685 -2.097225 -4.131549 0.000000 -0.000000 0.000000 -4.614979 1.921225 -9.008328 1.991589 -1.618315 12.575449 -0.279031 1.891087 -0.948163 4.304467 1.142817 6.731722 3.593883 -1.349189 8.916523 -22.496881 0.637168 1.858428 -53.404664 -14.134458 19.497661 -138.092571 -87.962735 156.937119 4.364519 -18.104437 -8.859195 21.559695 3.866249 4.841505 41.013886 17.428899 15.930083 -115.441771 85.295891 -102.940759 11.217651 14.788004 -14.782458 
0.361999 0.170812 0.987639 84.775609 0.963378 91.028626 8.938581 3.101522 6.973462 -5.691303 5.448377 -8.044061 0.417741 7.162966 -1.883360 0.000000 -0.000000 0.000000 -6.599041 -3.489996 1.182020 2.167726 0.005938 -0.941524 5.228817 -2.134378 -4.123421 0.000000 -0.000000 0.000000 -4.489489 1.928304 -8.813692 1.728986 -1.501545 12.775286 -0.359497 2.044512 -1.190262 4.240484 0.490274 6.870910 3.814279 -1.058008 8.974267 -22.501862 -0.081725 1.701414 -53.227274 -14.061186 19.491080 -158.187723 -87.135433 177.007614 4.086993 -18.412443 -8.291458 20.664697 5.326470 4.940876 39.793643 17.603756 15.671854 -124.856946 83.230917 -112.653088 11.741194 15.272808 -14.332692 
0.360962 0.171115 0.987629 85.090404 1.055436 91.046032 9.098355 2.983874 6.643766 -5.705845 5.482217 -7.734660 0.304657 7.014068 -1.949139 0.000000 -0.000000 0.000000 -6.459386 -3.487607 1.095316 2.142505 -0.234494 -0.863865 5.188361 -2.239231 -4.082915 0.000000 -0.000000 0.000000 -4.494771 1.892905 -8.436563 1.659945 -1.531161 12.465691 -0.315083 1.949327 -1.000791 4.459110 0.456382 6.742656 3.566744 -1.137550 9.065359 -22.378615 -0.114767 1.384700 -53.347263 -14.529954 19.687130 -163.378463 -86.420294 -177.368666 3.896571 -18.582624 -7.930403 20.159907 5.397256 4.315482 38.085869 19.374158 14.925867 -133.250477 83.084874 -121.281215 10.930984 15.088329 -15.720126 
0.361624 0.171471 0.987838 84.995887 0.967386 90.879081 8.956555 3.090247 6.955395 -5.645722 5.434934 -7.926711 0.228551 7.036820 -1.899384 0.000000 -0.000000 0.000000 -6.616090 -3.438983 1.288145 2.178938 -0.163013 -0.905885 5.257260 -2.260426 -4.021022 0.000000 -0.000000 0.000000 -4.442175 1.930279 -8.546375 1.456418 -1.248489 12.858490 -0.383172 2.004371 -0.946612 4.677600 0.393554 6.937616 3.305374 -1.224356 8.893437 -22.223542 -0.396529 1.164425 -53.191122 -14.964527 19.770720 -165.561050 -85.825261 -175.005928 4.113944 -18.646170 -7.290169 19.573122 5.915538 4.312987 36.229504 20.308630 14.529427 -140.805539 82.470296 -129.296783 7.560876 14.505633 -17.399174 
